<svg width="14" height="13" viewBox="0 0 14 13" fill="none" xmlns="http://www.w3.org/2000/svg">
<path d="M1.16683 7.33334H11.0502L8.02516 10.9667C7.95512 11.0509 7.90237 11.1482 7.86991 11.2528C7.83745 11.3575 7.82592 11.4675 7.83598 11.5766C7.8563 11.797 7.96332 12.0002 8.1335 12.1417C8.30368 12.2831 8.52308 12.3512 8.74343 12.3309C8.96379 12.3105 9.16705 12.2035 9.3085 12.0333L13.4752 7.03334C13.5032 6.99357 13.5283 6.95179 13.5502 6.90834C13.5502 6.86667 13.5918 6.84167 13.6085 6.80001C13.6463 6.70446 13.666 6.60275 13.6668 6.50001C13.666 6.39727 13.6463 6.29556 13.6085 6.20001C13.6085 6.15834 13.5668 6.13334 13.5502 6.09167C13.5283 6.04822 13.5032 6.00644 13.4752 5.96667L9.3085 0.966673C9.23014 0.872604 9.13203 0.796954 9.02112 0.745104C8.91022 0.693253 8.78925 0.666475 8.66683 0.666673C8.47212 0.666293 8.28342 0.734106 8.1335 0.85834C8.04911 0.928298 7.97936 1.01421 7.92824 1.11117C7.87711 1.20813 7.84561 1.31422 7.83555 1.42336C7.82549 1.53251 7.83705 1.64257 7.86959 1.74724C7.90213 1.85191 7.95499 1.94913 8.02516 2.03334L11.0502 5.66667H1.16683C0.945816 5.66667 0.733854 5.75447 0.577574 5.91075C0.421294 6.06703 0.333496 6.27899 0.333496 6.50001C0.333496 6.72102 0.421294 6.93298 0.577574 7.08926C0.733854 7.24554 0.945816 7.33334 1.16683 7.33334Z" fill="white"/>
</svg>
